<svg width="136" height="28" viewBox="0 0 136 28" fill="none" xmlns="http://www.w3.org/2000/svg">
<path d="M25.2301 24L29.6267 11.7047H32.0977L36.4944 24H34.1853L33.1458 20.8218H28.5702L27.5306 24H25.2301ZM30.8367 13.8945L29.124 19.1262H32.5919L30.8878 13.8945H30.8367ZM37.5935 24V14.9681H39.7152V16.4166H39.7578C40.1412 15.4282 41.07 14.7806 42.2629 14.7806C43.5239 14.7806 44.4356 15.4453 44.7679 16.6041H44.8191C45.2536 15.4793 46.3272 14.7806 47.6309 14.7806C49.4117 14.7806 50.579 15.9906 50.579 17.797V24H48.4574V18.3252C48.4574 17.209 47.878 16.57 46.8385 16.57C45.816 16.57 45.1173 17.3283 45.1173 18.419V24H43.0553V18.2145C43.0553 17.2005 42.4418 16.57 41.4534 16.57C40.4309 16.57 39.7152 17.3709 39.7152 18.4701V24H37.5935ZM54.9501 24.1534C53.1438 24.1534 51.9253 23.0372 51.9253 21.4268V21.4097C51.9253 19.8078 53.1693 18.845 55.3591 18.7087L57.7194 18.5638V17.9418C57.7194 17.0301 57.1229 16.4763 56.0493 16.4763C55.0439 16.4763 54.4304 16.9449 54.294 17.6095L54.277 17.6862H52.3087L52.3173 17.5839C52.4451 15.9821 53.8339 14.7806 56.126 14.7806C58.384 14.7806 59.841 15.9735 59.841 17.7884V24H57.7194V22.6111H57.6682C57.1485 23.5569 56.143 24.1534 54.9501 24.1534ZM54.0384 21.3416C54.0384 22.0829 54.6519 22.5344 55.5807 22.5344C56.7991 22.5344 57.7194 21.725 57.7194 20.6514V19.9697L55.6574 20.0975C54.6093 20.1657 54.0384 20.6173 54.0384 21.333V21.3416ZM61.5537 24V14.9681H63.6753V16.3825H63.7179C64.1865 15.4112 65.1068 14.7806 66.4786 14.7806C68.4639 14.7806 69.5972 16.0587 69.5972 18.1548V24H67.4755V18.5809C67.4755 17.2942 66.8791 16.57 65.6691 16.57C64.4507 16.57 63.6753 17.4561 63.6753 18.7598V24H61.5537Z" fill="black"/>
<path d="M71.5143 24V11.7047H74.0535L77.8196 21.0945H77.8792L81.6454 11.7047H84.1845V24H82.2077V15.2578H82.1396L78.595 24H77.1039L73.5593 15.2578H73.4996V24H71.5143ZM90.1149 24.1789C87.4053 24.1789 85.7694 22.3811 85.7694 19.5096V19.5011C85.7694 16.6552 87.4309 14.7806 90.0127 14.7806C92.5944 14.7806 94.1963 16.5955 94.1963 19.3222V20.0038H87.874C87.9081 21.5887 88.7772 22.5259 90.1575 22.5259C91.2141 22.5259 91.9043 21.9636 92.1088 21.3586L92.1258 21.2989H94.1111L94.0855 21.3927C93.8044 22.7815 92.4751 24.1789 90.1149 24.1789ZM90.0382 16.4422C88.9135 16.4422 88.07 17.2005 87.8995 18.5894H92.1343C91.9809 17.1579 91.163 16.4422 90.0382 16.4422ZM95.5681 24V14.9681H97.6898V16.4166H97.7324C98.1158 15.4282 99.0446 14.7806 100.237 14.7806C101.499 14.7806 102.41 15.4453 102.743 16.6041H102.794C103.228 15.4793 104.302 14.7806 105.605 14.7806C107.386 14.7806 108.554 15.9906 108.554 17.797V24H106.432V18.3252C106.432 17.209 105.853 16.57 104.813 16.57C103.791 16.57 103.092 17.3283 103.092 18.419V24H101.03V18.2145C101.03 17.2005 100.416 16.57 99.428 16.57C98.4055 16.57 97.6898 17.3709 97.6898 18.4701V24H95.5681ZM111.382 13.673C110.718 13.673 110.198 13.1447 110.198 12.5141C110.198 11.8666 110.718 11.3468 111.382 11.3468C112.047 11.3468 112.558 11.8666 112.558 12.5141C112.558 13.1447 112.047 13.673 111.382 13.673ZM110.317 24V14.9681H112.439V24H110.317ZM114.305 24V11.7047H116.427V24H114.305ZM119.358 13.673C118.693 13.673 118.173 13.1447 118.173 12.5141C118.173 11.8666 118.693 11.3468 119.358 11.3468C120.022 11.3468 120.534 11.8666 120.534 12.5141C120.534 13.1447 120.022 13.673 119.358 13.673ZM118.293 24V14.9681H120.414V24H118.293ZM122.28 24V11.7047H124.402V16.4848H124.453C124.922 15.4026 125.885 14.7806 127.239 14.7806C129.182 14.7806 130.426 16.1951 130.426 18.3764V24H128.305V18.7939C128.305 17.405 127.606 16.57 126.387 16.57C125.186 16.57 124.402 17.4817 124.402 18.7939V24H122.28ZM133.289 24.1363C132.599 24.1363 132.054 23.591 132.054 22.9008C132.054 22.2192 132.599 21.6739 133.289 21.6739C133.979 21.6739 134.516 22.2192 134.516 22.9008C134.516 23.591 133.979 24.1363 133.289 24.1363Z" fill="#FF7272"/>
<rect x="6" width="4.5483" height="5.74761" rx="0.497824" fill="#C3C3C3"/>
<path d="M0 8.24542C0 7.37061 0.709175 6.66144 1.58399 6.66144H15.4778C16.3526 6.66144 17.0618 7.37061 17.0618 8.24542V26.416C17.0618 27.2908 16.3526 28 15.4778 28H1.58399C0.709176 28 0 27.2908 0 26.416V8.24542Z" fill="#FF7272"/>
<rect x="1.5979" y="9.73029" width="13.8658" height="17.6447" rx="0.958986" fill="white" stroke="black" stroke-width="1.25"/>
</svg>
