<svg width="20" height="20" viewBox="0 0 20 20" fill="none" xmlns="http://www.w3.org/2000/svg">
<path d="M10 3.86919V16.9927M10 3.86919L10.8801 3.54809C12.8829 2.81739 15.1171 2.81739 17.1199 3.54808C17.6514 3.74202 18 4.21159 18 4.73378V15.5065C18 16.2235 17.206 16.7138 16.4761 16.4475C14.8866 15.8676 13.1134 15.8676 11.5239 16.4475L10.011 16.9995C10.0057 17.0014 10 16.9979 10 16.9927M10 3.86919L9.11989 3.54809C7.1171 2.81739 4.8829 2.81739 2.88011 3.54808C2.34855 3.74202 2 4.21159 2 4.73378V15.5065C2 16.2235 2.79398 16.7138 3.52388 16.4475C5.1134 15.8676 6.8866 15.8676 8.47612 16.4475L9.98903 16.9995C9.99428 17.0014 10 16.9979 10 16.9927" stroke="#F2A75C"/>
</svg>
