<svg width="18" height="18" viewBox="0 0 18 18" fill="none" xmlns="http://www.w3.org/2000/svg">
<path fill-rule="evenodd" clip-rule="evenodd" d="M7.73108 0.56251L7.73438 0.5625L11.0398 0.562501C11.2292 0.562764 11.4167 0.600494 11.5914 0.673518C11.7661 0.746543 11.9246 0.853418 12.0579 0.987984L12.0592 0.989359L15.8957 4.8908C15.8958 4.89099 15.896 4.89117 15.8962 4.89136C16.163 5.16176 16.3126 5.52637 16.3125 5.90625C16.3125 5.90631 16.3125 5.90637 16.3125 5.90643V11.9531C16.3125 13.1036 15.4052 14.0625 14.24 14.0625H12.375V15.3281C12.375 16.4786 11.4677 17.4375 10.3025 17.4375H3.76172C2.59524 17.4375 1.6875 16.4791 1.6875 15.3281V6.04688L1.68751 6.04358C1.69078 5.48602 1.91371 4.95223 2.30797 4.55797C2.70223 4.16371 3.23602 3.94078 3.79358 3.93751L3.79688 3.9375H5.625V2.67188L5.62501 2.66858C5.62828 2.11102 5.85121 1.57723 6.24547 1.18297C6.63973 0.788713 7.17352 0.565775 7.73108 0.56251ZM6.75 3.9375V2.67371C6.75191 2.41276 6.85642 2.16302 7.04097 1.97847C7.22552 1.79392 7.47526 1.68941 7.73621 1.6875H10.4062V4.92188C10.4062 4.92411 10.4063 4.92635 10.4063 4.92858C10.4111 5.33554 10.575 5.72447 10.8627 6.01225C11.1505 6.30003 11.5395 6.46386 11.9464 6.46871C11.9474 6.46872 11.9484 6.46873 11.9495 6.46874C11.9507 6.46875 11.9519 6.46875 11.9531 6.46875H15.1875V11.9531C15.1875 12.5112 14.7554 12.9375 14.24 12.9375H12.375V9.28607C12.375 9.28599 12.375 9.2859 12.375 9.28582C12.375 9.28482 12.375 9.28383 12.375 9.28283C12.375 9.2823 12.375 9.28178 12.375 9.28125C12.375 9.27891 12.375 9.27658 12.375 9.27424C12.3721 8.8979 12.2235 8.53711 11.9601 8.26781L11.959 8.2667L8.12226 4.36489C8.12221 4.36484 8.12217 4.3648 8.12213 4.36475C7.98969 4.22975 7.83172 4.12245 7.65741 4.0491C7.48304 3.97573 7.29581 3.93779 7.10664 3.9375L6.75 3.9375ZM6.46875 5.0625V8.29688C6.46875 8.29911 6.46876 8.30135 6.46879 8.30358C6.47364 8.71054 6.63747 9.09947 6.92525 9.38725C7.21303 9.67503 7.60196 9.83886 8.00892 9.84371C8.01115 9.84374 8.01339 9.84375 8.01562 9.84375H11.25V15.3281C11.25 15.8862 10.8179 16.3125 10.3025 16.3125H3.76172C3.24421 16.3125 2.8125 15.8858 2.8125 15.3281V6.04871C2.81441 5.78776 2.91892 5.53802 3.10347 5.35347C3.28802 5.16892 3.53776 5.06441 3.79871 5.0625H6.46875ZM10.8258 8.71875L7.59375 5.43195V8.29285C7.59578 8.40513 7.64128 8.5123 7.72074 8.59176C7.8002 8.67122 7.90737 8.71672 8.01965 8.71875H10.8258ZM14.7633 5.34375L11.5312 2.05695V4.91782C11.5333 5.03011 11.5788 5.13729 11.6582 5.21676C11.7377 5.29622 11.8449 5.34172 11.9572 5.34375H14.7633Z" fill="#FE4D68"/>
</svg>
