<svg width="23" height="23" viewBox="0 0 23 23" fill="none" xmlns="http://www.w3.org/2000/svg">
<path d="M21.7547 11.0109C20.9277 8.87178 19.492 7.02184 17.6251 5.68975C15.7582 4.35766 13.5418 3.60181 11.25 3.51562C8.95818 3.60181 6.74184 4.35766 4.87491 5.68975C3.00799 7.02184 1.57231 8.87178 0.745319 11.0109C0.689467 11.1654 0.689467 11.3346 0.745319 11.4891C1.57231 13.6282 3.00799 15.4782 4.87491 16.8103C6.74184 18.1423 8.95818 18.8982 11.25 18.9844C13.5418 18.8982 15.7582 18.1423 17.6251 16.8103C19.492 15.4782 20.9277 13.6282 21.7547 11.4891C21.8105 11.3346 21.8105 11.1654 21.7547 11.0109ZM11.25 17.5781C7.52344 17.5781 3.58594 14.8148 2.1586 11.25C3.58594 7.68516 7.52344 4.92188 11.25 4.92188C14.9766 4.92188 18.9141 7.68516 20.3414 11.25C18.9141 14.8148 14.9766 17.5781 11.25 17.5781Z" fill="black"/>
<path d="M11.25 7.03125C10.4156 7.03125 9.59996 7.27868 8.90619 7.74224C8.21242 8.2058 7.67169 8.86468 7.35239 9.63555C7.03308 10.4064 6.94953 11.2547 7.11231 12.073C7.2751 12.8914 7.67689 13.6431 8.26689 14.2331C8.8569 14.8231 9.60861 15.2249 10.427 15.3877C11.2453 15.5505 12.0936 15.4669 12.8644 15.1476C13.6353 14.8283 14.2942 14.2876 14.7578 13.5938C15.2213 12.9 15.4688 12.0844 15.4688 11.25C15.4688 10.1311 15.0243 9.05806 14.2331 8.26689C13.4419 7.47572 12.3689 7.03125 11.25 7.03125ZM11.25 14.0625C10.6937 14.0625 10.15 13.8975 9.68746 13.5885C9.22495 13.2795 8.86446 12.8402 8.65159 12.3263C8.43872 11.8124 8.38302 11.2469 8.49154 10.7013C8.60006 10.1557 8.86793 9.6546 9.26126 9.26126C9.6546 8.86793 10.1557 8.60006 10.7013 8.49154C11.2469 8.38302 11.8124 8.43872 12.3263 8.65159C12.8402 8.86446 13.2795 9.22495 13.5885 9.68746C13.8976 10.15 14.0625 10.6937 14.0625 11.25C14.0625 11.9959 13.7662 12.7113 13.2387 13.2387C12.7113 13.7662 11.9959 14.0625 11.25 14.0625Z" fill="black"/>
</svg>
