<svg width="19" height="19" viewBox="0 0 19 19" fill="none" xmlns="http://www.w3.org/2000/svg">
<path d="M6.33333 1.78125C3.81929 1.78125 1.78125 3.81929 1.78125 6.33333V7.125C1.78125 7.45292 2.04708 7.71875 2.375 7.71875C2.70292 7.71875 2.96875 7.45292 2.96875 7.125V6.33333C2.96875 4.47513 4.47513 2.96875 6.33333 2.96875H7.125C7.45292 2.96875 7.71875 2.70292 7.71875 2.375C7.71875 2.04708 7.45292 1.78125 7.125 1.78125H6.33333Z" fill="#F2A75C"/>
<path d="M11.875 1.78125C11.5471 1.78125 11.2812 2.04708 11.2812 2.375C11.2812 2.70292 11.5471 2.96875 11.875 2.96875H12.6667C14.5249 2.96875 16.0312 4.47513 16.0312 6.33333V7.125C16.0312 7.45292 16.2971 7.71875 16.625 7.71875C16.9529 7.71875 17.2188 7.45292 17.2188 7.125V6.33333C17.2188 3.81929 15.1807 1.78125 12.6667 1.78125H11.875Z" fill="#F2A75C"/>
<path d="M4.75 8.90625C4.42208 8.90625 4.15625 9.17208 4.15625 9.5C4.15625 9.82792 4.42208 10.0938 4.75 10.0938H14.25C14.5779 10.0938 14.8438 9.82792 14.8438 9.5C14.8438 9.17208 14.5779 8.90625 14.25 8.90625H4.75Z" fill="#F2A75C"/>
<path d="M2.96875 11.875C2.96875 11.5471 2.70292 11.2812 2.375 11.2812C2.04708 11.2812 1.78125 11.5471 1.78125 11.875V12.6667C1.78125 15.1807 3.81929 17.2188 6.33333 17.2188H7.125C7.45292 17.2188 7.71875 16.9529 7.71875 16.625C7.71875 16.2971 7.45292 16.0312 7.125 16.0312H6.33333C4.47513 16.0312 2.96875 14.5249 2.96875 12.6667V11.875Z" fill="#F2A75C"/>
<path d="M17.2188 11.875C17.2188 11.5471 16.9529 11.2812 16.625 11.2812C16.2971 11.2812 16.0312 11.5471 16.0312 11.875V12.6667C16.0312 14.5249 14.5249 16.0312 12.6667 16.0312H11.875C11.5471 16.0312 11.2812 16.2971 11.2812 16.625C11.2812 16.9529 11.5471 17.2188 11.875 17.2188H12.6667C15.1807 17.2188 17.2188 15.1807 17.2188 12.6667V11.875Z" fill="#F2A75C"/>
</svg>
